<svg width="12" height="12" viewBox="0 0 12 12" fill="none" xmlns="http://www.w3.org/2000/svg">
<path d="M7.13583 0.938762C6.87358 0.684413 6.45148 0.687498 6.1931 0.945652C5.93472 1.20381 5.93786 1.61926 6.2001 1.8736L9.78003 5.34589L0.666615 5.34589C0.298511 5.34589 2.39781e-06 5.63974 2.36613e-06 6.0021C2.33445e-06 6.36453 0.298511 6.65832 0.666615 6.65832L9.77563 6.65832L6.2001 10.1263C5.93786 10.3807 5.93472 10.7962 6.1931 11.0544C6.45148 11.3125 6.87358 11.3156 7.13583 11.0612L11.7516 6.58429C12.0828 6.26301 12.0828 5.73699 11.7516 5.41571L7.13583 0.938762Z" fill="#7A60D8"/>
</svg>
