<svg width="11" height="11" viewBox="0 0 11 11" fill="none" xmlns="http://www.w3.org/2000/svg">
<path d="M5.5 10.5C4.84339 10.5 4.19321 10.3707 3.58658 10.1194C2.97995 9.86812 2.42876 9.49983 1.96447 9.03553C1.50017 8.57124 1.13188 8.02004 0.880602 7.41342C0.629329 6.80679 0.5 6.15661 0.5 5.5C0.5 4.84339 0.629329 4.19321 0.880603 3.58658C1.13188 2.97995 1.50017 2.42876 1.96447 1.96447C2.42876 1.50017 2.97996 1.13188 3.58658 0.880602C4.19321 0.629329 4.84339 0.5 5.5 0.5C6.15661 0.5 6.80679 0.629329 7.41342 0.880603C8.02005 1.13188 8.57124 1.50017 9.03553 1.96447C9.49983 2.42876 9.86812 2.97996 10.1194 3.58658C10.3707 4.19321 10.5 4.84339 10.5 5.5C10.5 6.15661 10.3707 6.80679 10.1194 7.41342C9.86812 8.02005 9.49983 8.57124 9.03553 9.03553C8.57124 9.49983 8.02004 9.86812 7.41342 10.1194C6.80679 10.3707 6.15661 10.5 5.5 10.5L5.5 10.5Z" stroke="white"/>
<path d="M3.66699 3.6665L7.33366 7.33317" stroke="white" stroke-width="1.2" stroke-linecap="round"/>
<path d="M7.33301 3.6665L3.66634 7.33317" stroke="white" stroke-width="1.2" stroke-linecap="round"/>
</svg>
