<svg width="8" height="8" viewBox="0 0 8 8" fill="#000" xmlns="http://www.w3.org/2000/svg">
    <path
        d="M6.51655 5.98429C6.55151 6.01913 6.57924 6.06053 6.59817 6.10611C6.6171 6.15169 6.62684 6.20056 6.62684 6.24992C6.62684 6.29927 6.6171 6.34814 6.59817 6.39372C6.57924 6.43931 6.55151 6.4807 6.51655 6.51554C6.44578 6.58539 6.35035 6.62455 6.25092 6.62455C6.15149 6.62455 6.05606 6.58539 5.9853 6.51554L4.00092 4.53117L2.01655 6.51554C1.94578 6.58539 1.85035 6.62455 1.75092 6.62455C1.65149 6.62455 1.55606 6.58539 1.4853 6.51554C1.45034 6.4807 1.4226 6.43931 1.40367 6.39372C1.38474 6.34814 1.375 6.29927 1.375 6.24992C1.375 6.20056 1.38474 6.15169 1.40367 6.10611C1.4226 6.06053 1.45034 6.01913 1.4853 5.98429L3.46967 3.99992L1.4853 2.01554C1.41485 1.94509 1.37527 1.84955 1.37527 1.74992C1.37527 1.70059 1.38499 1.65174 1.40386 1.60616C1.42274 1.56059 1.45041 1.51918 1.4853 1.48429C1.52018 1.44941 1.56159 1.42174 1.60717 1.40286C1.65274 1.38398 1.70159 1.37427 1.75092 1.37427C1.85055 1.37427 1.9461 1.41384 2.01655 1.48429L4.00092 3.46867L5.9853 1.48429C6.05574 1.41384 6.15129 1.37427 6.25092 1.37427C6.35055 1.37427 6.4461 1.41384 6.51655 1.48429C6.58699 1.55474 6.62657 1.65029 6.62657 1.74992C6.62657 1.84955 6.58699 1.94509 6.51655 2.01554L4.53217 3.99992L6.51655 5.98429Z" />
</svg>