<svg width="12" height="12" viewBox="0 0 12 12" fill="none" xmlns="http://www.w3.org/2000/svg">
<path d="M11.7598 6.13639C11.7598 5.71094 11.7216 5.30185 11.6507 4.90912H5.99976V7.23276H9.22885C9.08703 7.98003 8.66157 8.61276 8.02339 9.03821V10.5491H9.97067C11.1052 9.50185 11.7598 7.96366 11.7598 6.13639Z" fill="#4285F4"/>
<path d="M5.99968 12.0001C7.61968 12.0001 8.97786 11.4655 9.97059 10.5491L8.02331 9.03823C7.48877 9.39823 6.80695 9.61642 5.99968 9.61642C4.43968 9.61642 3.11422 8.56369 2.63967 7.14551H0.643311V8.6946C1.63058 10.6528 3.65422 12.0001 5.99968 12.0001Z" fill="#34A853"/>
<path d="M2.64 7.13939C2.52 6.77939 2.44909 6.39758 2.44909 5.99939C2.44909 5.60121 2.52 5.21939 2.64 4.85939V3.3103H0.643636C0.234546 4.11758 0 5.02848 0 5.99939C0 6.9703 0.234546 7.88121 0.643636 8.68848L2.19818 7.47757L2.64 7.13939Z" fill="#FBBC05"/>
<path d="M5.99968 2.38909C6.88331 2.38909 7.66877 2.69455 8.29604 3.28364L10.0142 1.56545C8.9724 0.594545 7.61968 0 5.99968 0C3.65422 0 1.63058 1.34727 0.643311 3.31091L2.63967 4.86C3.11422 3.44182 4.43968 2.38909 5.99968 2.38909Z" fill="#EA4335"/>
</svg>
