<svg width="12" height="13" viewBox="0 0 12 13" fill="none" xmlns="http://www.w3.org/2000/svg">
<path d="M6.04053 0.5C6.70695 0.5 7.33858 0.646853 7.906 0.910209C7.66483 1.32809 7.52668 1.81371 7.52668 2.33101C7.52668 3.89264 8.78464 5.16464 10.3439 5.16464C10.3982 5.16464 10.4522 5.16308 10.5059 5.16001V7.66661V7.77298L10.5492 7.87014L11.4882 9.97713L11.4882 9.97716C11.496 9.99456 11.5 10.0136 11.5 10.033C11.5 10.11 11.439 10.1664 11.3711 10.1664H0.712478C0.694707 10.1664 0.677233 10.1626 0.6611 10.1553L0.661013 10.1553C0.596773 10.1263 0.564243 10.0472 0.59532 9.97724C0.595321 9.97723 0.595323 9.97723 0.595325 9.97722L1.53205 7.86998L1.57516 7.77301L1.57516 7.66689L1.57523 4.9964L1.578 4.83843C1.66303 2.41891 3.6372 0.5 6.04053 0.5ZM4.80504 11.8341H7.27602C7.00874 12.2364 6.55389 12.5 6.04053 12.5C5.52716 12.5 5.07231 12.2364 4.80504 11.8341ZM11.499 2.33101C11.499 2.9788 10.9785 3.49789 10.3439 3.49789C9.70923 3.49789 9.18873 2.9788 9.18873 2.33101C9.18873 1.68323 9.70923 1.16414 10.3439 1.16414C10.9785 1.16414 11.499 1.68323 11.499 2.33101Z" stroke="#7D7D7D"/>
</svg>
